HIERARCHY
ROOT Hips
{
	OFFSET 0.000000 0.000000 0.000000
	CHANNELS 6 Xposition Yposition Zposition Xrotation Yrotation Zrotation
	JOINT LeftUpLeg_virtual
	{
		OFFSET 0.000000 0.000000 0.000000
		CHANNELS 3 Xrotation Yrotation Zrotation
		JOINT LeftUpLeg
		{
			OFFSET 10.205400 -3.823500 0.155100
			CHANNELS 3 Xrotation Yrotation Zrotation
			JOINT LeftLeg
			{
				OFFSET 0.708757 -12.982077 0.567790
				CHANNELS 3 Xrotation Yrotation Zrotation
				JOINT LeftFoot
				{
					OFFSET -0.708756 -10.717838 -2.184338
					CHANNELS 3 Xrotation Yrotation Zrotation
					JOINT LeftToeBase
					{
						OFFSET 0.108149 -7.191104 7.560241
						CHANNELS 3 Xrotation Yrotation Zrotation
						JOINT LeftToe_End
						{
							OFFSET 0.070230 0.081724 4.490308
							CHANNELS 3 Xrotation Yrotation Zrotation
							End Site
							{
								OFFSET 0 0 0
							}
						}
					}
				}
			}
		}
	}
	JOINT RightUpLeg_virtual
	{
		OFFSET 0.000000 0.000000 0.000000
		CHANNELS 3 Xrotation Yrotation Zrotation
		JOINT RightUpLeg
		{
			OFFSET -10.205400 -3.823500 0.005500
			CHANNELS 3 Xrotation Yrotation Zrotation
			JOINT RightLeg
			{
				OFFSET -0.708756 -12.982134 0.610632
				CHANNELS 3 Xrotation Yrotation Zrotation
				JOINT RightFoot
				{
					OFFSET 0.708754 -10.717769 -1.945823
					CHANNELS 3 Xrotation Yrotation Zrotation
					JOINT RightToeBase
					{
						OFFSET -0.108140 -7.191069 7.372968
						CHANNELS 3 Xrotation Yrotation Zrotation
						JOINT RightToe_End
						{
							OFFSET -0.070227 0.081735 4.479403
							CHANNELS 3 Xrotation Yrotation Zrotation
							End Site
							{
								OFFSET 0 0 0
							}
						}
					}
				}
			}
		}
	}
	JOINT Spine_virtual
	{
		OFFSET 0.000000 0.000000 0.000000
		CHANNELS 3 Xrotation Yrotation Zrotation
		JOINT Spine
		{
			OFFSET 0.000000 6.876099 0.125700
			CHANNELS 3 Xrotation Yrotation Zrotation
			JOINT Spine1
			{
				OFFSET 0.000000 5.730043 0.104720
				CHANNELS 3 Xrotation Yrotation Zrotation
				JOINT Spine1_split
				{
					OFFSET 0.000000 5.730043 0.104720
					CHANNELS 3 Xrotation Yrotation Zrotation
					JOINT Spine2
					{
						OFFSET 0.000000 5.730043 0.104720
						CHANNELS 3 Xrotation Yrotation Zrotation
						JOINT Neck_virtual
						{
							OFFSET 0.000000 0.000000 0.000000
							CHANNELS 3 Xrotation Yrotation Zrotation
							JOINT Neck
							{
								OFFSET 0.000000 10.314075 0.188496
								CHANNELS 3 Xrotation Yrotation Zrotation
								JOINT Head
								{
									OFFSET 0.000000 7.643700 -2.377400
									CHANNELS 3 Xrotation Yrotation Zrotation
									JOINT HeadTop_End
									{
										OFFSET 0.000000 43.788605 -13.619600
										CHANNELS 3 Xrotation Yrotation Zrotation
										End Site
										{
											OFFSET 0 0 0
										}
									}
								}
							}
						}
						JOINT LeftShoulder_virtual
						{
							OFFSET 0.000000 0.000000 0.000000
							CHANNELS 3 Xrotation Yrotation Zrotation
							JOINT LeftShoulder
							{
								OFFSET 2.196100 4.412489 0.087492
								CHANNELS 3 Xrotation Yrotation Zrotation
								JOINT LeftShoulder_split
								{
									OFFSET 2.196100 4.412489 0.087492
									CHANNELS 3 Xrotation Yrotation Zrotation
									JOINT LeftArm
									{
										OFFSET 8.771219 -2.981674 -0.026999
										CHANNELS 3 Xrotation Yrotation Zrotation
										JOINT LeftForeArm
										{
											OFFSET 8.512804 0.000000 -0.000000
											CHANNELS 3 Xrotation Yrotation Zrotation
											JOINT LeftHand
											{
												OFFSET 18.484802 0.000000 -0.000000
												CHANNELS 3 Xrotation Yrotation Zrotation
												End Site
												{
													OFFSET 0 0 0
												}
											}
										}
									}
								}
							}
						}
						JOINT RightShoulder_virtual
						{
							OFFSET 0.000000 0.000000 0.000000
							CHANNELS 3 Xrotation Yrotation Zrotation
							JOINT RightShoulder
							{
								OFFSET -2.196100 4.412496 0.070690
								CHANNELS 3 Xrotation Yrotation Zrotation
								JOINT RightShoulder_split
								{
									OFFSET -2.196100 4.412496 0.070690
									CHANNELS 3 Xrotation Yrotation Zrotation
									JOINT RightArm
									{
										OFFSET -8.771282 -2.981682 -0.094208
										CHANNELS 3 Xrotation Yrotation Zrotation
										JOINT RightForeArm
										{
											OFFSET -8.494598 0.000000 0.000000
											CHANNELS 3 Xrotation Yrotation Zrotation
											JOINT RightHand
											{
												OFFSET -18.483803 0.000000 0.000001
												CHANNELS 3 Xrotation Yrotation Zrotation
												End Site
												{
													OFFSET 0 0 0
												}
											}
										}
									}
								}
							}
						}
					}
				}
			}
		}
	}
}
MOTION
Frames: 4
Frame Time: 0.03333333
3.457059 34.234005 -1.972882 0.000000 0.000000 0.000000 -1.042473 -19.739836 -1.465561 -5.570650 5.627083 -0.505508 23.763785 8.642536 1.701637 -18.968795 20.309622 -1.806511 -3.488250 0.134011 -0.440459 0.000000 0.000000 0.000000 -0.520290 -19.406442 -1.590007 -13.126152 -9.644344 -13.252216 19.508902 3.881315 1.983824 -10.780895 -4.135975 7.871822 -7.208228 0.216938 0.531786 0.000000 0.000000 0.000000 -0.869265 -20.117725 -2.491704 4.811236 1.389844 -1.477167 0.607114 0.352240 0.124499 0.914475 0.158200 0.231770 0.000000 0.000000 0.000000 0.736270 0.529710 -0.165444 -0.604258 -0.061338 2.680600 12.857307 9.902182 7.637844 0.000000 0.000000 0.000000 0.308032 0.454511 -0.062310 1.893802 -3.537570 -11.405248 -0.533299 -0.574702 -1.995839 -5.924955 -18.495439 -55.901246 0.072300 -12.457707 0.757701 0.000000 0.000000 0.000000 0.282562 0.483995 0.028406 2.940301 -2.042602 16.426810 -1.928191 1.984809 -2.665860 6.659296 1.339129 65.344584 1.352169 18.084101 1.450754 0.000000 0.000000 0.000000 
3.645867 34.238106 -1.880935 0.000000 0.000000 0.000000 -0.953765 -20.615580 -1.595490 -5.472610 5.665941 -0.835934 23.734803 8.712668 1.654908 -19.384471 21.005595 -1.500687 -3.534102 0.146098 -0.408821 0.000000 0.000000 0.000000 -0.440310 -20.214542 -1.711410 -13.209712 -9.662146 -13.143586 19.221204 3.989466 1.864235 -10.841269 -3.965463 7.653767 -7.097771 0.212236 0.513006 0.000000 0.000000 0.000000 -0.805865 -20.944661 -2.631241 4.549408 0.950769 -1.629717 0.566264 0.257994 0.108696 0.951211 0.165138 0.230979 0.000000 0.000000 0.000000 0.680643 0.421579 -0.183968 -0.622670 -0.058005 2.821878 13.032892 10.744212 8.107867 0.000000 0.000000 0.000000 0.251622 0.354207 -0.085362 1.826685 -3.770745 -11.381108 -0.633453 -0.512646 -1.991258 -6.266921 -19.916313 -56.163317 0.009872 -13.016330 0.748161 0.000000 0.000000 0.000000 0.238901 0.383570 -0.013825 2.980897 -2.495232 16.691405 -1.976344 1.849451 -2.705630 6.289363 1.899073 65.916428 1.389744 18.535590 1.415626 0.000000 0.000000 0.000000 
3.816724 34.245491 -1.787547 0.000000 0.000000 0.000000 -0.833064 -21.456607 -1.729721 -5.420111 5.694570 -1.088771 23.718315 8.774097 1.633870 -19.749017 21.660289 -1.201419 -3.591964 0.158299 -0.376999 0.000000 0.000000 0.000000 -0.327925 -20.994799 -1.841175 -13.230352 -9.673709 -12.963002 18.810285 3.993461 1.704991 -10.832335 -3.806462 7.378715 -6.916432 0.211840 0.500550 0.000000 0.000000 0.000000 -0.711867 -21.746728 -2.769866 4.314248 0.479794 -1.815419 0.531120 0.163207 0.073530 0.987054 0.185870 0.232987 0.000000 0.000000 0.000000 0.633804 0.310831 -0.217770 -0.631095 -0.059610 2.975425 13.190625 11.510941 8.650709 0.000000 0.000000 0.000000 0.206353 0.254287 -0.122267 1.740187 -4.059188 -11.301075 -0.717140 -0.454632 -1.985018 -6.445417 -21.491561 -56.410946 -0.018912 -13.883264 0.755049 0.000000 0.000000 0.000000 0.216454 0.281263 -0.078232 3.018646 -2.963262 17.009625 -2.053007 1.689899 -2.713565 5.805912 2.533543 66.402860 1.429744 18.986329 1.390381 0.000000 0.000000 0.000000 
3.964976 34.257778 -1.695390 0.000000 0.000000 0.000000 -0.655262 -22.224956 -1.849095 -5.423072 5.709392 -1.272605 23.697478 8.830521 1.646684 -20.034963 22.262670 -0.905712 -3.658572 0.170675 -0.352203 0.000000 0.000000 0.000000 -0.162750 -21.715579 -1.964414 -13.188667 -9.651123 -12.757418 18.270947 3.907458 1.507997 -10.649633 -3.667846 7.160992 -6.798801 0.213534 0.491537 0.000000 0.000000 0.000000 -0.560418 -22.481668 -2.888805 4.090850 -0.025160 -2.052529 0.495873 0.065569 0.013132 1.003212 0.201484 0.255883 0.000000 0.000000 0.000000 0.592636 0.196540 -0.272409 -0.636764 -0.063736 3.151209 13.345727 12.196168 9.247076 0.000000 0.000000 0.000000 0.168772 0.154074 -0.177882 1.632812 -4.386762 -11.147182 -0.779950 -0.397695 -1.970036 -6.465642 -23.195713 -56.678026 -0.006885 -15.149983 0.773287 0.000000 0.000000 0.000000 0.208118 0.175336 -0.169129 3.055252 -3.451753 17.368237 -2.154905 1.513607 -2.702356 5.277992 3.211359 66.789729 1.466510 19.410001 1.388506 0.000000 0.000000 0.000000 
